# xmcd
# Track frame offsets:
# 150
# 20850
# 37707
# 55039
# 67968
# 82811
# 101052
#
# Disc length: 1548 seconds
# Revision: 0
# Processed by: cddbd v1.5.2PL0 Copyright (c) Steve Scherf et al.
# Submitted via: VisiTrax 2.11.2.271 - For more info visit www.synapsa.com
#
DISCID=4b060a07
DTITLE=Various Artist - Universal Music Country Sampler
DYEAR=1900
DGENRE=Country
TTITLE0=Mark Knopfler and Emmylou Harris - This is Us
TTITLE1=Willie Nelson - You Don't Know Me
TTITLE2=Ryan Adams - Nightbirds
TTITLE3=Teddy Thompson and Rufus Wainwright - King Of The Road
TTITLE4=Reba McEntire - Love Needs a Holiday
TTITLE5=Terri Clarke - Damn Right
TTITLE6=Tex Don and Charlie - You're 39, You're Beautiful and You're Mine
EXTD=
EXTT0=
EXTT1=
EXTT2=
EXTT3=
EXTT4=
EXTT5=
EXTT6=
PLAYORDER=
